<svg width="1920" height="164" viewBox="0 0 1920 164" fill="none" xmlns="http://www.w3.org/2000/svg">
<mask id="mask0_1118_42" style="mask-type:alpha" maskUnits="userSpaceOnUse" x="0" y="0" width="1920" height="164">
<rect width="1920" height="164" fill="#D9D9D9"/>
</mask>
<g mask="url(#mask0_1118_42)">
<path d="M258.5 44.3698C106.486 -47.0829 47.9174 49.3415 0 101.843V800H1920V50.7737C1860.75 -28.1474 1776.06 1.66202 1719.5 29.1484C1675 50.7739 1566.37 177.84 1472.2 85.3065C1367 -18.052 1210 -8.85172 1149 29.1484C1088 67.1485 1048.7 108.223 971 105.982C896.002 103.819 873.438 77.7924 833 50.7737C695 -41.4311 588.362 16.5644 539.5 50.7737L538.675 51.3516C451.036 112.711 414.555 138.254 258.5 44.3698Z" fill="white"/>
</g>
</svg>
